<svg width="242" height="150" viewBox="0 0 242 150" fill="none" xmlns="http://www.w3.org/2000/svg">
<mask id="mask0_205_12" style="mask-type:alpha" maskUnits="userSpaceOnUse" x="0" y="0" width="242" height="150">
<path d="M0 20C0 8.9543 8.9543 0 20 0H242V150H20C8.95431 150 0 141.046 0 130V20Z" fill="#F4901E"/>
</mask>
<g mask="url(#mask0_205_12)">
<path d="M0 20C0 8.9543 8.9543 0 20 0H242V150H20C8.95431 150 0 141.046 0 130V20Z" fill="#FABC19"/>
<path d="M-24 -2.9968C-24 -3.76083 -23.7549 -4.74992 -23.6431 -5.24017C-22.5995 -9.80001 -19.6294 -12.7529 -15.5813 -14.7412C-13.0369 -15.9883 -10.3004 -16.4828 -7.4693 -16.6548C-1.61504 -17.0103 4.03424 -18.2173 9.16603 -21.2161C15.9033 -25.1538 19.6303 -31.2504 21.4049 -38.6513C21.9055 -40.7744 22.176 -42.9453 22.212 -45.1263C22.3424 -52.2793 27.4871 -58.4833 34.5641 -59.6946C40.3854 -60.6894 45.5516 -59.2975 49.5926 -54.8796C56.3098 -47.5288 53.9403 -36.6344 44.8521 -32.5362C41.9106 -31.2117 38.8316 -30.5007 35.6192 -30.5293C31.961 -30.558 28.6081 -29.5073 25.4344 -27.8215C19.5007 -24.7013 14.4666 -20.1113 10.8131 -14.4903C7.58923 -9.56349 6.98287 -4.06473 7.43441 1.63902C7.81428 6.43396 9.25921 10.8533 12.1448 14.7523C16.8265 21.0782 23.1638 24.7536 30.8142 26.2014C33.3199 26.6744 35.8973 26.7633 38.4374 27.0615C43.5061 27.6549 47.871 29.6102 50.9185 33.8575C55.3809 40.0745 53.6521 48.7154 47.0912 53.3655C37.8038 59.9466 24.9614 55.0212 22.579 43.9047C22.1976 42.1214 22.2693 40.2436 22.0987 38.4117C21.8278 35.5032 20.8172 32.8211 19.3178 30.3498C15.7342 24.4425 11.2417 19.414 5.01759 16.1586C0.702868 13.8994 -3.92005 12.8788 -8.77519 12.7627C-12.3889 12.6853 -15.6859 11.6159 -18.5242 9.30805C-21.5545 6.83963 -23.2474 3.6215 -23.7491 -0.24168C-23.8936 -1.13424 -23.9774 -2.03557 -24 -2.93946V-2.9968Z" fill="white" fill-opacity="0.2"/>
<path d="M97.9963 39.3606C97.9676 47.712 91.9371 54.1052 83.5714 54.4665C78.1672 54.7016 72.925 55.5473 68.2491 58.3784C60.7951 62.8952 55.2046 69.0706 52.5555 77.5094C51.9248 79.5163 52.0079 81.751 51.7915 83.8826C51.1106 90.6371 46.545 95.9394 39.9482 97.618C32.1788 99.5948 23.8447 95.1424 21.3132 87.6626C19.0784 81.0687 22.1088 74.1408 28.6955 70.7248C31.9409 69.0419 35.4557 68.7681 39.0165 68.4514C49.7072 67.4981 58.3381 63.0214 63.7509 53.3928C65.9111 49.5483 66.4745 45.3081 66.6751 40.9547C67.0794 32.3653 63.2764 25.7599 57.2143 20.1422C53.0572 16.2833 48.4702 13.0967 42.8553 11.7737C41.2111 11.3866 39.478 11.325 37.7794 11.2347C33.555 11.011 29.5972 9.98182 26.1784 7.40445C18.8304 1.86268 18.6484 -8.39374 25.7483 -14.5275C33.3744 -21.1143 45.5588 -18.9598 50.1917 -10.2056C51.3672 -7.98521 51.8546 -5.59706 51.932 -3.10856C52.3219 9.30809 59.2254 20.8202 74.0489 23.9136C77.2125 24.573 80.4751 24.758 83.6903 25.1837C87.8087 25.7284 91.4698 27.2808 94.4098 30.2782C96.871 32.7868 98.0766 35.83 97.9963 39.3606Z" fill="white" fill-opacity="0.2"/>
<path d="M80.1152 12.6767C74.2824 12.5778 70.048 10.7372 66.903 6.75219C62.6327 1.34087 62.9323 -6.04147 67.5294 -11.2163C73.4611 -17.8933 84.5991 -18.0969 90.7027 -11.632C98.1811 -3.71496 94.662 8.85508 84.0672 11.9413C82.5406 12.39 80.9294 12.5333 80.1152 12.6767Z" fill="white" fill-opacity="0.2"/>
<path d="M-0.299219 54.3131C-5.91553 54.207 -10.2546 52.2303 -13.371 47.9585C-17.6255 42.1272 -16.6565 34.1314 -11.2208 29.345C-4.89203 23.776 5.17661 24.1659 10.7743 30.1951C17.7696 37.7294 14.95 49.4422 5.22535 53.1979C4.36963 53.5379 3.48493 53.7998 2.58204 53.9805C1.51555 54.1812 0.423246 54.2343 -0.299219 54.3131Z" fill="white" fill-opacity="0.2"/>
<path d="M75.4177 84.264C69.7469 84.264 66.2106 78.7337 68.8367 73.976C70.3547 71.2237 73.8151 69.7157 77.0074 70.4138C80.3603 71.1463 82.6151 73.6377 82.8846 76.9074C83.2229 80.8538 79.7525 84.2654 75.4177 84.264Z" fill="white" fill-opacity="0.2"/>
</g>
</svg>
