<svg width="501" height="451" viewBox="0 0 501 451" fill="none" xmlns="http://www.w3.org/2000/svg">
<rect width="500" height="451" rx="24" fill="#FABC19"/>
<mask id="mask0_6_17069" style="mask-type:alpha" maskUnits="userSpaceOnUse" x="1" y="0" width="500" height="451">
<rect x="1" width="500" height="451" rx="24" fill="#FABC19"/>
</mask>
<g mask="url(#mask0_6_17069)">
<path d="M-66 -25.3953C-66 -26.9046 -65.5158 -28.8585 -65.2949 -29.8269C-63.2335 -38.8345 -57.3662 -44.6677 -49.3696 -48.5952C-44.3433 -51.0588 -38.9377 -52.0357 -33.3451 -52.3755C-21.7805 -53.0778 -10.6209 -55.4621 -0.48349 -61.3859C12.8254 -69.1646 20.1878 -81.2077 23.6934 -95.8276C24.6821 -100.022 25.2166 -104.31 25.2876 -108.618C25.5453 -122.748 35.7082 -135.004 49.6882 -137.397C61.1876 -139.362 71.393 -136.612 79.3755 -127.885C92.6447 -113.364 87.9639 -91.8435 70.0111 -83.7477C64.2005 -81.1312 58.1181 -79.7267 51.7723 -79.7833C44.5458 -79.84 37.9225 -77.7644 31.6532 -74.4343C19.9318 -68.2707 9.98721 -59.2036 2.7701 -48.0997C-3.59834 -38.3672 -4.79614 -27.5049 -3.90416 -16.2377C-3.15377 -6.76572 -0.299431 1.96432 5.40073 9.66649C14.649 22.1627 27.1678 29.4231 42.2805 32.2831C47.2303 33.2175 52.3216 33.3931 57.3394 33.9821C67.3522 35.1544 75.9746 39.0168 81.9948 47.4071C90.8098 59.6881 87.3948 76.7574 74.4342 85.9434C56.0878 98.9436 30.7188 89.214 26.0125 67.2543C25.2593 63.7317 25.4009 60.0222 25.0639 56.4033C24.5287 50.6579 22.5324 45.3598 19.5704 40.478C12.4912 28.8086 3.61678 18.8751 -8.67837 12.4444C-17.2017 7.98164 -26.3339 5.9655 -35.9248 5.73613C-43.0634 5.58322 -49.5763 3.47079 -55.183 -1.08821C-61.1692 -5.96436 -64.5134 -12.3215 -65.5045 -19.9528C-65.7898 -21.716 -65.9553 -23.4965 -66 -25.2821V-25.3953Z" fill="white" fill-opacity="0.2"/>
<path d="M174.993 58.278C174.936 74.7754 163.023 87.4047 146.498 88.1183C135.822 88.5826 125.467 90.2533 116.23 95.8459C101.505 104.769 90.4616 116.967 85.2286 133.637C83.9827 137.602 84.1469 142.016 83.7194 146.227C82.3743 159.57 73.3554 170.044 60.324 173.36C44.9763 177.265 28.513 168.47 23.5122 153.694C19.0977 140.669 25.0838 126.983 38.0954 120.235C44.5063 116.911 51.4496 116.37 58.4834 115.744C79.6021 113.861 96.6516 105.018 107.344 85.9973C111.611 78.4028 112.724 70.0267 113.121 61.4269C113.919 44.4595 106.407 31.4111 94.4316 20.3137C86.2197 12.6909 77.1584 6.39606 66.0667 3.78242C62.8188 3.01786 59.3953 2.8961 56.0397 2.7177C47.6948 2.27596 39.8765 0.242821 33.123 -4.84854C18.6078 -15.7958 18.2482 -36.0564 32.2734 -48.1732C47.338 -61.1847 71.4072 -56.9287 80.5592 -39.6357C82.8812 -35.2494 83.844 -30.5318 83.9969 -25.6161C84.7671 -1.08807 98.4044 21.6531 127.687 27.7639C133.936 29.0665 140.381 29.4317 146.733 30.2728C154.868 31.3488 162.1 34.4155 167.908 40.3365C172.77 45.292 175.151 51.3036 174.993 58.278Z" fill="white" fill-opacity="0.2"/>
<path d="M139.67 5.56624C128.148 5.37086 119.783 1.73499 113.571 -6.13708C105.135 -16.8267 105.727 -31.4098 114.808 -41.6321C126.525 -54.8221 148.528 -55.2242 160.585 -42.4533C175.358 -26.814 168.406 -1.98301 147.477 4.11359C144.461 4.9999 141.278 5.28307 139.67 5.56624Z" fill="white" fill-opacity="0.2"/>
<path d="M-19.1809 87.8152C-30.2754 87.6056 -38.8469 83.7008 -45.003 75.2624C-53.4074 63.7431 -51.4932 47.948 -40.7554 38.493C-28.2536 27.492 -8.3639 28.2622 2.6938 40.1722C16.5124 55.0555 10.9425 78.1931 -8.26762 85.6121C-9.95801 86.2838 -11.7057 86.8013 -13.4892 87.1582C-15.596 87.5547 -17.7537 87.6594 -19.1809 87.8152Z" fill="white" fill-opacity="0.2"/>
<path d="M130.391 146.98C119.189 146.98 112.203 136.056 117.391 126.657C120.39 121.22 127.225 118.241 133.531 119.621C140.155 121.067 144.609 125.989 145.141 132.448C145.81 140.244 138.954 146.983 130.391 146.98Z" fill="white" fill-opacity="0.2"/>
<path d="M357 384.605C357 383.095 357.484 381.142 357.705 380.173C359.767 371.166 365.634 365.332 373.63 361.405C378.657 358.941 384.062 357.964 389.655 357.624C401.219 356.922 412.379 354.538 422.517 348.614C435.825 340.835 443.188 328.792 446.693 314.172C447.682 309.978 448.217 305.69 448.288 301.382C448.545 287.252 458.708 274.996 472.688 272.603C484.188 270.638 494.393 273.388 502.375 282.115C515.645 296.636 510.964 318.157 493.011 326.252C487.201 328.869 481.118 330.273 474.772 330.217C467.546 330.16 460.923 332.236 454.653 335.566C442.932 341.729 432.987 350.796 425.77 361.9C419.402 371.633 418.204 382.495 419.096 393.762C419.846 403.234 422.701 411.964 428.401 419.666C437.649 432.163 450.168 439.423 465.28 442.283C470.23 443.218 475.322 443.393 480.339 443.982C490.352 445.154 498.975 449.017 504.995 457.407C513.81 469.688 510.395 486.757 497.434 495.943C479.088 508.944 453.719 499.214 449.013 477.254C448.259 473.732 448.401 470.022 448.064 466.403C447.529 460.658 445.532 455.36 442.57 450.478C435.491 438.809 426.617 428.875 414.322 422.444C405.798 417.982 396.666 415.965 387.075 415.736C379.937 415.583 373.424 413.471 367.817 408.912C361.831 404.036 358.487 397.679 357.496 390.047C357.21 388.284 357.045 386.504 357 384.718V384.605Z" fill="white" fill-opacity="0.2"/>
<path d="M597.993 468.278C597.936 484.775 586.023 497.405 569.498 498.118C558.822 498.583 548.467 500.253 539.23 505.846C524.505 514.769 513.462 526.967 508.229 543.637C506.983 547.602 507.147 552.016 506.719 556.227C505.374 569.57 496.355 580.044 483.324 583.36C467.976 587.265 451.513 578.47 446.512 563.694C442.098 550.669 448.084 536.983 461.095 530.235C467.506 526.911 474.45 526.37 481.483 525.744C502.602 523.861 519.652 515.018 530.344 495.997C534.611 488.403 535.724 480.027 536.121 471.427C536.919 454.459 529.407 441.411 517.432 430.314C509.22 422.691 500.158 416.396 489.067 413.782C485.819 413.018 482.395 412.896 479.04 412.718C470.695 412.276 462.877 410.243 456.123 405.151C441.608 394.204 441.248 373.944 455.273 361.827C470.338 348.815 494.407 353.071 503.559 370.364C505.881 374.751 506.844 379.468 506.997 384.384C507.767 408.912 521.404 431.653 550.687 437.764C556.936 439.066 563.381 439.432 569.733 440.273C577.868 441.349 585.1 444.415 590.908 450.337C595.77 455.292 598.151 461.304 597.993 468.278Z" fill="white" fill-opacity="0.2"/>
<path d="M403.819 497.815C392.725 497.606 384.153 493.701 377.997 485.262C369.593 473.743 371.507 457.948 382.245 448.493C394.746 437.492 414.636 438.262 425.694 450.172C439.512 465.056 433.942 488.193 414.732 495.612C413.042 496.284 411.294 496.801 409.511 497.158C407.404 497.555 405.246 497.659 403.819 497.815Z" fill="white" fill-opacity="0.2"/>
<path d="M378.181 320.92C378.323 316.203 380.313 312.615 383.949 309.936C389.613 305.757 398.017 306.3 403.151 311.128C409.236 316.851 408.786 326.329 402.185 331.488C393.461 338.304 380.665 333.838 378.399 323.177C378.281 322.43 378.208 321.676 378.181 320.92Z" fill="white" fill-opacity="0.2"/>
</g>
</svg>
