<svg width="147" height="43" viewBox="0 0 147 43" fill="none" xmlns="http://www.w3.org/2000/svg">
<path fill-rule="evenodd" clip-rule="evenodd" d="M16.2052 27.2013L20.5033 23.7318C19.7863 22.8306 19.0987 21.9177 18.4561 20.9754C13.486 13.7877 10.5416 6.46483 12.6691 0H0V6.98397L16.2052 27.2013Z" fill="#EA5506"/>
<path fill-rule="evenodd" clip-rule="evenodd" d="M22.9836 16.7537C23.25 14.4714 23.9435 10.1694 28.13 6.97222C31.7542 4.21389 36.2874 3.68299 40.3035 5.38932V0H17.941C16.4678 6.5569 20.3467 13.7622 22.9836 16.7537Z" fill="#EA5506"/>
<path fill-rule="evenodd" clip-rule="evenodd" d="M28.4068 10.1868L28.3931 10.1986C24.1851 13.6171 25.2194 18.9849 29.1355 23.7963C32.1525 27.5185 36.1881 30.1161 40.3021 28.1414V12.2889C36.6073 8.50403 32.1701 7.11703 28.4068 10.1868Z" fill="#EA5506"/>
<path fill-rule="evenodd" clip-rule="evenodd" d="M0 15.249V40.2953H0.00783616L12.2029 30.4335L0 15.249Z" fill="#EA5506"/>
<path fill-rule="evenodd" clip-rule="evenodd" d="M22.1786 25.7197C20.9797 26.6992 19.5006 27.908 17.8687 29.246L19.4497 31.2188C21.7437 34.0829 25.0917 39.0432 29.2449 37.7032L29.3977 37.8991L26.4473 40.2969H40.3154V30.7682C33.1708 34.6431 27.0351 31.1149 22.1786 25.7197Z" fill="#EA5506"/>
<path fill-rule="evenodd" clip-rule="evenodd" d="M15.486 34.5276L13.8443 32.4863C10.4826 35.1859 6.95044 38.0167 4.08044 40.297H19.5902C18.5871 38.1597 16.7574 36.1125 15.486 34.5276Z" fill="#EA5506"/>
<path fill-rule="evenodd" clip-rule="evenodd" d="M65.5518 36.1423H60.6758V20.0429L65.9182 20.0194C72.0206 20.0194 77.0592 22.2841 77.0592 28.2258C77.0592 34.0442 71.7698 36.1423 65.5518 36.1423ZM60.6758 3.72217L65.734 3.80445C69.4876 3.80445 73.3233 5.64203 73.3233 9.87747C73.3233 14.8965 69.9283 16.2385 65.0954 16.2385H60.6797V3.72217H60.6758ZM73.868 16.8477C77.5784 16.1993 79.9978 12.9923 79.9978 8.89991C79.9978 3.43224 75.2804 0 67.1955 0H51.2097V0.195904C54.4754 1.98647 54.401 4.87801 54.401 7.64025V32.6102C54.401 35.4175 54.4754 38.3384 51.2097 40.1015V40.2837H58.9068C66.4275 40.2837 72.1949 40.411 76.5009 38.3854C81.0792 36.2422 83.8473 32.3809 83.8473 27.6793C83.8473 21.6768 79.3866 17.9938 73.868 16.8321V16.8477Z" fill="#00688D"/>
<path fill-rule="evenodd" clip-rule="evenodd" d="M96.1057 32.6121C96.1057 36.0502 96.045 38.4892 99.2911 40.3973V40.5697H88.4537V40.3973C91.6959 38.4873 91.6391 36.0502 91.6391 32.6121V8.13393C91.6391 4.72324 91.6959 2.01781 88.4577 0.190027V0H97.4555V0.0607302C97.6945 0.789493 98.0902 1.20285 98.3665 1.59662C98.6427 1.99038 99.2226 2.81318 99.2226 2.81318L119.859 30.6315V7.89493C119.859 4.46857 119.914 2.01781 116.678 0.190027V0H127.452V0.195904C124.271 2.02369 124.271 4.47445 124.271 7.9008V42.5758C122.312 41.7922 116.826 37.2276 112.908 31.9735C105.895 22.5544 96.1038 9.45824 96.1038 9.45824L96.1057 32.6121Z" fill="#00688D"/>
<path fill-rule="evenodd" clip-rule="evenodd" d="M137.497 7.3033C137.497 4.4862 137.448 1.97667 134.323 0.190027V0H147V0.195904C143.866 1.92965 143.83 4.54889 143.83 7.30917V33.0509C143.83 35.7936 143.758 38.5911 147 40.3836V40.5658H134.323V40.3836C137.581 38.5656 137.497 35.8249 137.497 33.0666V7.3033Z" fill="#00688D"/>
</svg>
