<svg width="455" height="89" viewBox="0 0 455 89" fill="none" xmlns="http://www.w3.org/2000/svg">
<path d="M142.61 70.83L155.86 34.66L160.19 70.83H174.19L166.61 17.7H149.52L138.21 49.6199L126.9 17.7H109.82L102.23 70.83H116.23L120.57 34.66L133.81 70.83H142.61Z" fill="black"/>
<path d="M216.19 31.3201L234.19 70.8301L227.06 86.3301H242.56L267.31 31.3201H251.31L241.81 58.9501L232.19 31.3201H216.19Z" fill="black"/>
<path d="M454.19 70.7801L437.82 49.6601L452.73 31.3201H436.07L422.81 48.5801V13.3201H408.31V70.7801H422.81V50.7801L437.69 70.7801H454.19Z" fill="black"/>
<path d="M269.65 68.79C275.594 70.7395 281.815 71.7088 288.07 71.66C298.82 71.66 312.82 68.33 312.82 49.83C312.82 31.33 294.23 30.66 292.07 30.66C289.424 30.5889 286.797 31.1367 284.4 32.26V13.26H269.65V68.79ZM284.4 61.66V40.88C287.34 39.88 297.98 37.24 297.98 50.74C297.99 64.5 287.06 62.39 284.4 61.66Z" fill="black"/>
<path d="M320.73 41.3301C341.9 35.0801 341.9 42.5801 341.9 43.5801V44.9101C324.77 45.0501 314.57 49.9101 314.57 58.8301C314.57 67.7501 324.07 71.7401 336.65 71.7401C349.23 71.7401 355.65 68.8301 355.65 68.8301V44.2401C355.65 35.5801 350.07 30.0801 336.65 30.0801C323.23 30.0801 317.4 33.2401 317.4 33.2401L320.73 41.3301ZM328.15 58.6601C328.15 52.9801 338.94 52.5701 341.9 52.5701V62.6801C338.81 63.0501 328.15 63.9301 328.15 58.6601Z" fill="black"/>
<path d="M182.23 41.3301C203.4 35.0801 203.4 42.5801 203.4 43.5801V44.9101C186.27 45.0501 176.07 49.9101 176.07 58.8301C176.07 67.7501 185.57 71.7401 198.15 71.7401C210.73 71.7401 217.15 68.8301 217.15 68.8301V44.2401C217.15 35.5801 211.57 30.0801 198.15 30.0801C184.73 30.0801 178.9 33.2401 178.9 33.2401L182.23 41.3301ZM189.65 58.6601C189.65 52.9801 200.44 52.5701 203.4 52.5701V62.6801C200.31 63.0501 189.65 63.9301 189.65 58.6601Z" fill="black"/>
<path d="M388.23 70.74H402.82V45.74C402.82 32.74 393.48 29.99 381.98 29.99C374.945 30.0138 367.952 31.0821 361.23 33.16V70.74H375.82V40.85C386.99 37.57 388.23 43 388.23 45.58V70.74Z" fill="black"/>
<path d="M44.25 3.7C52.2749 3.69802 60.12 6.07598 66.7933 10.5331C73.4665 14.9902 78.668 21.3263 81.7399 28.7399C84.8118 36.1535 85.6161 44.3116 84.051 52.1824C82.4859 60.0531 78.6218 67.2829 72.9473 72.9573C67.2729 78.6317 60.0431 82.4959 52.1724 84.0609C44.3016 85.626 36.1435 84.8218 28.7299 81.7499C21.3163 78.678 14.9803 73.4765 10.5231 66.8032C6.066 60.13 3.68804 52.2848 3.69002 44.26C3.69267 33.5036 7.9668 23.1886 15.5727 15.5827C23.1786 7.97678 33.4937 3.70265 44.25 3.7ZM44.25 0C35.4966 0.00197772 26.9404 2.59946 19.6632 7.46402C12.386 12.3286 6.71464 19.2417 3.36624 27.3294C0.0178409 35.417 -0.857228 44.3159 0.851683 52.9008C2.56059 61.4858 6.77674 69.3712 12.967 75.5601C19.1573 81.749 27.0437 85.9633 35.629 87.6703C44.2143 89.3773 53.113 88.5002 61.1999 85.1499C69.2868 81.7997 76.1987 76.1268 81.0616 68.8485C85.9245 61.5702 88.52 53.0134 88.52 44.26C88.5041 32.5247 83.8346 21.2747 75.5355 12.9775C67.2364 4.68025 55.9854 0.0132286 44.25 0Z" fill="#231F20"/>
<path d="M25.1899 28.76C25.1899 28.76 26.1299 25.08 27.6299 23.83C32.0824 20.585 37.048 18.1106 42.3199 16.51C42.996 16.3438 43.7046 16.3645 44.3699 16.57C44.3199 16.88 44.2899 17.09 44.2699 17.16C44.2019 17.5427 44.0126 17.8933 43.7299 18.16C44.4084 18.2434 45.0926 18.0593 45.6377 17.6467C46.1828 17.2342 46.5458 16.6256 46.6499 15.95C46.9899 14.62 47.9899 9.50001 49.5699 9.58001C54.1099 9.78001 57.3599 24.45 57.0199 25.12C56.8099 25.55 55.0199 25.2 55.0199 25.2C57.8599 29.66 61.5699 29.62 62.3999 28.91C63.2299 28.2 62.7699 25.91 62.7699 25.91C71.6899 31.2 71.1899 37.49 71.1899 37.49C73.8599 27.08 67.6899 22.62 67.6899 22.62C69.4494 22.6994 71.1641 23.2001 72.6899 24.08C68.9399 19.08 61.1899 16.24 61.1899 16.24C61.1899 16.24 52.1899 6.24001 49.1899 6.58001C46.7799 6.89001 45.3999 11.32 44.7199 14.36C44.1248 14.2979 43.5249 14.2979 42.9299 14.36C42.2899 13.57 39.5799 10.36 38.5299 11.36C38.1199 11.77 37.9899 14.66 37.9499 15.88C33.5699 17.62 26.1199 20.88 24.6099 23.3C23.8548 24.4999 23.3072 25.8183 22.9899 27.2C22.9899 27.2 14.0699 33 11.8799 39.2C11.8799 39.2 17.8799 32.2 25.1899 28.76Z" fill="black"/>
<path d="M53.9901 24.1201C53.8701 19.4901 51.5701 15.7801 50.4101 15.5801C49.2501 15.3801 48.8701 19.7801 48.8701 19.7801C50.7374 21.0259 52.4553 22.4821 53.9901 24.1201Z" fill="black"/>
<path d="M31.9901 23.28C30.2001 24.37 30.9901 25.28 30.9901 25.28C30.9901 25.28 30.7001 24.37 32.9101 23.74C36.8501 22.63 40.4101 21.49 40.3301 20.53C40.2501 19.57 37.5801 19.2 37.5801 19.2C38.3201 20.2 33.7701 22.2 31.9901 23.28Z" fill="black"/>
<path d="M30.69 33.8701C30.69 33.8701 31.82 31.2401 32.69 30.8701C33.4241 31.0674 34.1936 31.0948 34.94 30.9501C35.73 30.6601 37.23 28.6601 37.81 28.6201C37.81 28.6201 36.27 35.3301 30.02 35.2001C30.02 35.2001 34.52 37.7401 36.81 35.9501C39.1 34.1601 37.36 32.7901 40.31 29.9501C43.26 27.1101 41.31 26.9501 41.19 26.9501C40.8495 26.8983 40.5147 26.8146 40.19 26.7001C40.5302 26.3037 40.9582 25.9921 41.44 25.7901C42.27 25.4101 47.06 23.2401 47.15 21.9501C47.24 20.6601 43.69 19.2001 41.9 19.2401C41.9 19.2401 43.52 19.9101 43.44 20.8301C43.36 21.7501 38.69 23.8301 38.69 26.4101C37.7285 26.4809 36.7622 26.4406 35.81 26.2901C35.1544 26.1436 34.4756 26.1346 33.8164 26.2637C33.1572 26.3928 32.5319 26.6572 31.98 27.0401C30.65 27.9101 30.56 25.9501 30.69 25.7001C30.69 25.7001 28.1 27.3301 31.35 29.4101C30.8204 29.9392 30.3354 30.5111 29.9 31.1201C29.69 31.4901 29.15 33.2801 30.69 33.8701ZM33.84 29.4101C34.1052 29.4101 34.3595 29.3047 34.5471 29.1172C34.7346 28.9296 34.84 28.6753 34.84 28.4101C34.8357 28.2707 34.8024 28.1338 34.7421 28.0081C34.6819 27.8823 34.596 27.7706 34.49 27.6801C35.14 27.6801 36.63 27.6801 36.63 27.6801C36.46 27.6801 36.09 28.0601 35.25 29.1001C35.179 29.2444 35.0742 29.3696 34.9445 29.4648C34.8148 29.56 34.6641 29.6226 34.5051 29.6471C34.3461 29.6717 34.1835 29.6575 34.0312 29.6057C33.8788 29.554 33.7412 29.4663 33.63 29.3501V29.3001C33.6954 29.3449 33.7659 29.3819 33.84 29.4101Z" fill="black"/>
<path d="M26.5699 42.45C26.5699 42.45 26.4999 40.08 24.3199 40.58C20.6299 41.42 19.3799 47.95 19.3799 47.95C23.4999 40.33 26.5699 42.45 26.5699 42.45Z" fill="black"/>
<path d="M27.99 48.2599C29.99 44.9999 27.5 42.9999 24.38 44.6999C21.26 46.3999 20.5 50.6399 20.5 50.6399C26.69 43.8899 27.99 48.2599 27.99 48.2599Z" fill="black"/>
<path d="M19.9902 42.2C22.2402 38.58 24.8002 38.64 24.8002 38.64C21.6902 36.39 19.9902 42.2 19.9902 42.2Z" fill="black"/>
<path d="M57.4402 44.08C56.7158 43.3322 56.1619 42.4364 55.8167 41.4542C55.4714 40.472 55.343 39.4266 55.4402 38.39C55.6902 34.7 56.3802 29.14 50.1302 25.26C50.1302 25.26 52.6902 29.2 51.7502 33.08C50.8102 36.96 47.6802 43.57 47.9902 45.76C48.5502 50.58 53.5502 51.45 53.1802 58.01C53.1802 58.01 56.1202 54.45 55.5502 50.26C54.9802 46.07 51.3002 44.26 52.9302 40.95C52.8802 41 54.7502 43.7 57.4402 44.08Z" fill="black"/>
<path d="M75.4299 26.6401C75.4299 26.6401 80.8999 41.4901 74.7299 54.9901C74.7299 54.9901 75.0799 52.9901 73.5699 49.1601C71.9399 45.0101 72.4799 39.6601 73.1499 38.6601C71.2114 40.8627 70.1976 43.7285 70.3199 46.6601C70.4799 51.6601 71.8199 65.7401 61.6499 70.9901C63.9977 66.2598 64.8422 60.9243 64.0699 55.7001C65.0082 56.1558 65.7274 56.965 66.0699 57.9501C67.6835 52.6454 67.3935 46.9437 65.2499 41.8301C66.4255 42.0612 67.5354 42.5495 68.4999 43.2601C68.4999 43.2601 69.8199 36.9101 62.6299 32.4501C60.8099 31.3301 61.0699 30.7001 61.0699 30.7001C60.9169 31.193 60.8935 31.717 61.0021 32.2215C61.1107 32.726 61.3476 33.194 61.6899 33.5801C62.8799 35.0101 64.4999 37.8301 64.2499 39.2601C62.8317 38.3831 61.1514 38.0294 59.4999 38.2601C59.4999 38.2601 64.8799 42.8301 64.0699 52.6401C64.0699 52.6401 62.6899 51.1401 59.1899 50.5101C59.1899 50.5101 63.1299 57.8901 59.6299 64.9501C59.475 63.5116 59.0037 62.1251 58.2499 60.8901C58.2499 60.8901 57.3799 66.0801 51.1299 67.8901C51.1299 67.8901 56.1899 61.5801 50.1899 58.3901C44.1899 55.2001 39.1299 62.2601 38.1299 68.4501C38.1299 68.4501 31.1899 68.9501 30.4999 66.1401C30.2625 65.42 30.2626 64.6426 30.5003 63.9224C30.7379 63.2023 31.2005 62.5776 31.8199 62.1401C31.8199 62.1401 32.8799 62.8301 35.3199 61.7001C37.7599 60.5701 42.8799 57.5101 42.3799 53.6401C41.8799 49.7701 35.8199 46.0001 30.9899 47.5101C26.1599 49.0201 23.4399 53.3301 20.9899 53.2601C18.5399 53.1901 15.4299 49.3901 15.8699 47.3901C16.3099 45.3901 17.9299 44.8301 18.4899 41.4501C17.9725 41.4999 17.4516 41.3992 16.9899 41.1601C16.099 40.5854 15.0484 40.3087 13.9899 40.3701C13.1599 40.5801 11.1199 41.9501 11.0399 41.7001C11.0473 41.1115 11.1143 40.5252 11.2399 39.9501C11.2399 39.9501 8.98995 42.3301 9.35995 43.2801C10.3972 45.1827 11.8837 46.803 13.6899 48.0001C14.1044 50.1346 15.1494 52.0958 16.6899 53.6301C18.2799 55.2401 19.7699 55.5401 21.0399 55.2601C22.2501 57.1324 24.1392 58.4624 26.3099 58.9701C26.0297 56.9919 25.9961 54.9866 26.2099 53.0001C26.3207 52.9418 26.4247 52.8714 26.5199 52.7901C26.9799 52.3301 32.3199 47.4101 36.2699 52.1601C35.668 52.4389 35.1332 52.8439 34.7018 53.3478C34.2705 53.8516 33.9526 54.4425 33.7699 55.0801C33.0699 57.3301 32.6499 62.9101 26.7699 59.3301C26.7699 59.3301 26.2699 62.5401 28.0699 64.4501C28.0814 65.5913 28.4316 66.7034 29.0761 67.6452C29.7206 68.587 30.6304 69.3162 31.6899 69.7401C35.5699 71.6201 38.2699 70.2001 40.7699 71.4501C40.7699 71.4501 40.5199 66.3301 42.6499 63.2001C44.7799 60.0701 47.7699 59.0401 49.2299 60.2001C50.6899 61.3601 51.6099 66.0001 45.9799 70.7501C45.9799 70.7501 52.4399 71.5801 56.8599 68.2001C56.2906 72.2727 54.554 76.0933 51.8599 79.2001C57.3328 78.0042 62.4489 75.5412 66.7971 72.0091C71.1454 68.4771 74.6046 63.9744 76.8968 58.8628C79.189 53.7512 80.2504 48.1732 79.9957 42.577C79.7409 36.9808 78.1771 31.5223 75.4299 26.6401ZM14.7299 46.6401C13.7299 46.6401 12.0699 44.1001 11.7299 43.6401C11.3899 43.1801 13.3999 42.1601 13.9899 42.0001C14.5799 41.8401 15.1899 42.0001 15.2799 42.2501C15.3699 42.5001 14.0799 43.2501 13.9099 43.5901C13.7399 43.9301 14.9099 44.9701 15.1199 45.2101C15.4399 45.6201 15.6899 46.6201 14.7299 46.6201V46.6401ZM22.5599 54.6401C22.8299 54.4801 23.0799 54.3101 23.3199 54.1401C23.7326 53.8069 24.1948 53.5403 24.6899 53.3501C24.5861 54.5686 24.6399 55.7954 24.8499 57.0001C23.9111 56.3967 23.1268 55.5815 22.5599 54.6201V54.6401ZM35.2699 56.7601C35.2699 56.7601 37.2699 56.8501 37.2699 56.5101C37.1362 55.6202 36.9254 54.7436 36.6399 53.8901C36.6399 53.8901 39.0999 54.1401 39.1399 54.8901C39.1799 55.6401 37.8199 57.7001 34.8199 59.0001C35.0826 58.2737 35.2343 57.5118 35.2699 56.7401V56.7601ZM28.9899 63.3301C28.4299 63.1401 27.9299 61.0801 27.9299 61.0801C28.6803 61.5175 29.5315 61.7518 30.3999 61.7601C29.6599 62.5101 29.5999 63.5101 28.9899 63.3301Z" fill="black"/>
<path d="M49.4803 28.0001C49.4803 28.0001 45.2703 25.6301 43.4003 28.0901C41.6403 30.4001 42.7803 34.3701 41.7503 36.8401L41.6503 36.7501C39.3203 34.6701 36.4403 38.2101 35.9003 39.2501C35.7916 39.5255 35.623 39.7733 35.4068 39.9756C35.1907 40.1779 34.9323 40.3297 34.6503 40.4201C29.5203 41.4201 30.6503 37.3401 28.9003 36.0901C27.1503 34.8401 24.3203 36.6701 24.3203 36.6701C27.1903 36.1301 27.8603 38.1301 27.7703 38.9201C27.8559 40.4741 28.3009 41.9871 29.0703 43.3401C29.8603 44.6301 33.0703 43.7101 35.6903 43.9201C38.3103 44.1301 39.8203 47.3401 39.8203 47.3401C41.4003 43.5001 37.1503 41.7501 37.1503 41.7501C37.1503 41.7501 38.3903 39.4001 39.8603 40.2101C44.5203 42.8001 43.3603 53.2101 43.3603 53.2101C47.3603 45.6501 45.6103 41.2101 43.5103 38.6201C43.7803 36.3301 44.9903 28.9101 49.4803 28.0001Z" fill="black"/>
</svg>
