<svg width="157" height="116" viewBox="0 0 157 116" fill="none" xmlns="http://www.w3.org/2000/svg">
<path d="M8.98383 7.41823C11.7519 5.08975 15.8834 5.44609 18.2119 8.21414L0.227706 23.3424C-2.54034 25.6709 -6.67189 25.3145 -9.00036 22.5465L8.98383 7.41823Z" fill="#084C64"/>
<circle cx="21.3752" cy="9.58006" r="2.69683" transform="rotate(49.9295 21.3752 9.58006)" fill="#084C64"/>
<circle cx="5.70294" cy="23.2676" r="2.69683" transform="rotate(49.9295 5.70294 23.2676)" fill="#084C64"/>
<path d="M17.5286 9.79492C19.4462 12.0745 19.1527 15.4769 16.8732 17.3945L9.79742 23.3466C7.87985 21.067 8.17331 17.6646 10.4529 15.747L17.5286 9.79492Z" fill="#084C64"/>
<path d="M30.8845 7.1194C33.6526 4.79092 37.7841 5.14726 40.1126 7.91531L22.1284 23.0436C19.3604 25.3721 15.2288 25.0157 12.9003 22.2477L30.8845 7.1194Z" fill="#084C64"/>
<circle cx="43.2759" cy="9.28124" r="2.69683" transform="rotate(49.9295 43.2759 9.28124)" fill="#084C64"/>
<circle cx="27.6036" cy="22.9687" r="2.69683" transform="rotate(49.9295 27.6036 22.9687)" fill="#084C64"/>
<path d="M39.4293 9.49609C41.3469 11.7757 41.0534 15.1781 38.7739 17.0957L31.6981 23.0478C29.7805 20.7682 30.074 17.3658 32.3536 15.4482L39.4293 9.49609Z" fill="#084C64"/>
<path d="M52.7845 6.82057C55.5525 4.4921 59.684 4.84844 62.0125 7.61648L44.0283 22.7448C41.2603 25.0732 37.1287 24.7169 34.8003 21.9488L52.7845 6.82057Z" fill="#084C64"/>
<circle cx="65.1758" cy="8.98241" r="2.69683" transform="rotate(49.9295 65.1758 8.98241)" fill="#084C64"/>
<circle cx="49.5035" cy="22.6699" r="2.69683" transform="rotate(49.9295 49.5035 22.6699)" fill="#084C64"/>
<path d="M61.3295 9.19727C63.2471 11.4768 62.9536 14.8793 60.674 16.7968L53.5983 22.749C51.6807 20.4694 51.9742 17.0669 54.2537 15.1494L61.3295 9.19727Z" fill="#084C64"/>
<path d="M74.6849 6.52077C77.4529 4.19229 81.5845 4.54863 83.9129 7.31668L65.9288 22.4449C63.1607 24.7734 59.0292 24.4171 56.7007 21.649L74.6849 6.52077Z" fill="#084C64"/>
<circle cx="87.0763" cy="8.68358" r="2.69683" transform="rotate(49.9295 87.0763 8.68358)" fill="#084C64"/>
<circle cx="71.404" cy="22.3711" r="2.69683" transform="rotate(49.9295 71.404 22.3711)" fill="#084C64"/>
<path d="M83.2297 8.89844C85.1473 11.178 84.8538 14.5805 82.5742 16.498L75.4985 22.4501C73.5809 20.1706 73.8744 16.7681 76.154 14.8505L83.2297 8.89844Z" fill="#084C64"/>
<path d="M96.5858 6.22389C99.3539 3.89542 103.485 4.25176 105.814 7.0198L87.8297 22.1481C85.0616 24.4765 80.9301 24.1202 78.6016 21.3522L96.5858 6.22389Z" fill="#084C64"/>
<circle cx="108.977" cy="8.38573" r="2.69683" transform="rotate(49.9295 108.977 8.38573)" fill="#084C64"/>
<circle cx="93.3047" cy="22.0732" r="2.69683" transform="rotate(49.9295 93.3047 22.0732)" fill="#084C64"/>
<path d="M105.131 8.60059C107.048 10.8802 106.755 14.2826 104.475 16.2002L97.3994 22.1523C95.4818 19.8727 95.7753 16.4703 98.0549 14.5527L105.131 8.60059Z" fill="#084C64"/>
<path d="M118.486 5.92506C121.254 3.59659 125.386 3.95293 127.714 6.72097L109.73 21.8492C106.962 24.1777 102.83 23.8214 100.502 21.0533L118.486 5.92506Z" fill="#084C64"/>
<circle cx="130.877" cy="8.0869" r="2.69683" transform="rotate(49.9295 130.877 8.0869)" fill="#084C64"/>
<circle cx="115.205" cy="21.7744" r="2.69683" transform="rotate(49.9295 115.205 21.7744)" fill="#084C64"/>
<path d="M127.031 8.30176C128.948 10.5813 128.655 13.9838 126.375 15.9013L119.3 21.8535C117.382 19.5739 117.676 16.1714 119.955 14.2539L127.031 8.30176Z" fill="#084C64"/>
<path d="M140.386 5.62624C143.154 3.29776 147.286 3.6541 149.615 6.42214L131.63 21.5504C128.862 23.8789 124.731 23.5226 122.402 20.7545L140.386 5.62624Z" fill="#084C64"/>
<circle cx="152.778" cy="7.78807" r="2.69683" transform="rotate(49.9295 152.778 7.78807)" fill="#084C64"/>
<circle cx="137.105" cy="21.4756" r="2.69683" transform="rotate(49.9295 137.105 21.4756)" fill="#084C64"/>
<path d="M148.931 8.00293C150.849 10.2825 150.555 13.6849 148.276 15.6025L141.2 21.5546C139.282 19.2751 139.576 15.8726 141.855 13.955L148.931 8.00293Z" fill="#084C64"/>
<circle cx="-0.72406" cy="29.2812" r="2.69683" transform="rotate(49.9295 -0.72406 29.2812)" fill="#084C64"/>
<path d="M8.78449 26.8206C11.5525 24.4921 15.6841 24.8484 18.0126 27.6165L0.028365 42.7448C-2.73968 45.0732 -6.87123 44.7169 -9.1997 41.9488L8.78449 26.8206Z" fill="#084C64"/>
<circle cx="21.1759" cy="28.9824" r="2.69683" transform="rotate(49.9295 21.1759 28.9824)" fill="#084C64"/>
<circle cx="5.50357" cy="42.6699" r="2.69683" transform="rotate(49.9295 5.50357 42.6699)" fill="#084C64"/>
<path d="M17.3295 29.1973C19.2471 31.4768 18.9536 34.8793 16.6741 36.7968L9.59832 42.749C7.68076 40.4694 7.97421 37.0669 10.2538 35.1494L17.3295 29.1973Z" fill="#084C64"/>
<path d="M30.6849 26.5208C33.453 24.1923 37.5845 24.5486 39.913 27.3167L21.9288 42.4449C19.1607 44.7734 15.0292 44.4171 12.7007 41.649L30.6849 26.5208Z" fill="#084C64"/>
<circle cx="43.0763" cy="28.6836" r="2.69683" transform="rotate(49.9295 43.0763 28.6836)" fill="#084C64"/>
<circle cx="27.404" cy="42.3711" r="2.69683" transform="rotate(49.9295 27.404 42.3711)" fill="#084C64"/>
<path d="M39.2297 28.8984C41.1473 31.178 40.8538 34.5805 38.5743 36.498L31.4985 42.4501C29.581 40.1706 29.8744 36.7681 32.154 34.8505L39.2297 28.8984Z" fill="#084C64"/>
<path d="M52.5858 26.2239C55.3539 23.8954 59.4854 24.2518 61.8139 27.0198L43.8297 42.1481C41.0617 44.4765 36.9301 44.1202 34.6017 41.3522L52.5858 26.2239Z" fill="#084C64"/>
<circle cx="64.9773" cy="28.3857" r="2.69683" transform="rotate(49.9295 64.9773 28.3857)" fill="#084C64"/>
<circle cx="49.3047" cy="42.0732" r="2.69683" transform="rotate(49.9295 49.3047 42.0732)" fill="#084C64"/>
<path d="M61.1306 28.6006C63.0482 30.8802 62.7548 34.2826 60.4752 36.2002L53.3994 42.1523C51.4819 39.8727 51.7753 36.4703 54.0549 34.5527L61.1306 28.6006Z" fill="#084C64"/>
<path d="M74.4861 25.9251C77.2541 23.5966 81.3856 23.9529 83.7141 26.721L65.7299 41.8492C62.9619 44.1777 58.8303 43.8214 56.5019 41.0533L74.4861 25.9251Z" fill="#084C64"/>
<circle cx="86.8774" cy="28.0869" r="2.69683" transform="rotate(49.9295 86.8774 28.0869)" fill="#084C64"/>
<circle cx="71.2052" cy="41.7744" r="2.69683" transform="rotate(49.9295 71.2052 41.7744)" fill="#084C64"/>
<path d="M83.0309 28.3018C84.9484 30.5813 84.655 33.9838 82.3754 35.9013L75.2996 41.8535C73.3821 39.5739 73.6755 36.1714 75.9551 34.2539L83.0309 28.3018Z" fill="#084C64"/>
<path d="M96.3865 25.6262C99.1545 23.2978 103.286 23.6541 105.615 26.4221L87.6304 41.5504C84.8623 43.8789 80.7308 43.5226 78.4023 40.7545L96.3865 25.6262Z" fill="#084C64"/>
<circle cx="108.778" cy="27.7881" r="2.69683" transform="rotate(49.9295 108.778 27.7881)" fill="#084C64"/>
<circle cx="93.1053" cy="41.4756" r="2.69683" transform="rotate(49.9295 93.1053 41.4756)" fill="#084C64"/>
<path d="M104.931 28.0029C106.849 30.2825 106.555 33.6849 104.276 35.6025L97.2001 41.5546C95.2825 39.2751 95.576 35.8726 97.8555 33.955L104.931 28.0029Z" fill="#084C64"/>
</svg>
