<svg id="Layer_1" data-name="Layer 1" xmlns="http://www.w3.org/2000/svg" viewBox="0 0 89.12 33.27"><defs><style>.cls-1{fill:#081a3a;}.cls-2{fill:#0043ff;}</style></defs><title>logo sQue</title><path class="cls-1" d="M22.66,27.88a20.51,20.51,0,0,1,.59-2.37,20.83,20.83,0,0,1,.92-2.42A12.56,12.56,0,0,1,21,18.85,12.62,12.62,0,0,1,20,13.7a13.36,13.36,0,0,1,.65-4.13,12.62,12.62,0,0,1,1.9-3.66,12.25,12.25,0,0,1,4.32-3.63A12,12,0,0,1,32.29,1,12.3,12.3,0,0,1,43.37,8.07a13.44,13.44,0,0,1,1.24,5.8,12.45,12.45,0,0,1-1,4.82,11.91,11.91,0,0,1-2.72,4,11.56,11.56,0,0,1-3.56,2.43,10.06,10.06,0,0,1-4,.86,16.33,16.33,0,0,1-2.9-.44h0l-.05.35c.76.16,2.44.69,5,1.56a25.8,25.8,0,0,0,6.69,1.47l-1.4,4.34a29.68,29.68,0,0,1-8.59-2.59l-1.09-.45-.2-.08A26.71,26.71,0,0,0,22.66,27.88Zm3.24-14a7.78,7.78,0,0,0,1.84,5.28,5.93,5.93,0,0,0,9.1,0,7.82,7.82,0,0,0,1.84-5.29,7.87,7.87,0,0,0-1.84-5.31,5.92,5.92,0,0,0-9.1,0A7.82,7.82,0,0,0,25.9,13.87Z"/><path class="cls-1" d="M79.72,3.13,79.52,3l-1.08-.45A29.73,29.73,0,0,0,69.84,0L68.45,4.34a26,26,0,0,1,6.69,1.47c1.72.59,3,1,4,1.28l1.08.29a37.77,37.77,0,0,0,6.61,1.89,13,13,0,0,0,.54-1.51,18.65,18.65,0,0,0,.59-2.37A26.73,26.73,0,0,1,79.72,3.13Z"/><path class="cls-2" d="M11.32,12.11C9,11.19,6.84,10.32,6.84,9.17c0-1.54,1.1-2.33,3.27-2.33a7.56,7.56,0,0,1,5.37,2.31l.64.63L20,5.44l-.57-.57A13.25,13.25,0,0,0,10.25,1C5.66,1,1,3.5,1,9c0,5.1,4.8,7.09,8.66,8.69,2.53,1.05,4.92,2,4.92,3.5,0,1.7-2.46,2.15-3.76,2.15-2.68,0-4.61-.79-5.74-2.34l-.52-.71L0,23.93l.5.66a12.51,12.51,0,0,0,10.21,4.6c4.83,0,9.71-2.69,9.71-7.83C20.42,15.75,15.16,13.65,11.32,12.11Z"/><path class="cls-1" d="M61.37,18a4.58,4.58,0,0,1-4.84,4.84A4.64,4.64,0,0,1,51.69,18V7.69H45.8V18a10.73,10.73,0,1,0,21.46,0V7.69H61.37Z"/><path class="cls-1" d="M87.81,12.66a9.38,9.38,0,0,0-3.67-3.72,10.72,10.72,0,0,0-5.29-1.31A10.93,10.93,0,0,0,73.48,9a9.7,9.7,0,0,0-3.76,3.73A10.6,10.6,0,0,0,68.37,18a10.41,10.41,0,0,0,1.39,5.37,9.55,9.55,0,0,0,3.95,3.73,12.34,12.34,0,0,0,5.8,1.32,12.5,12.5,0,0,0,4.65-.83,8.84,8.84,0,0,0,3.51-2.51l.46-.56L84.72,20.6l-.64.65A6,6,0,0,1,79.62,23a5.77,5.77,0,0,1-3.53-1,4.15,4.15,0,0,1-1.38-1.74H89l.06-.78c0-.59.07-1,.07-1.36A11.12,11.12,0,0,0,87.81,12.66Zm-12,1.19h0a4.81,4.81,0,0,1,6,0,4.11,4.11,0,0,1,1.21,1.8H74.62A4.15,4.15,0,0,1,75.86,13.85Z"/></svg>